<svg xmlns="http://www.w3.org/2000/svg" width="1480" height="1280" viewBox="0 0 1480 1280" font-family="Arial, Helvetica, sans-serif" font-size="12">
  <defs>
    <marker id="arrow" markerWidth="10" markerHeight="7" refX="10" refY="3.5" orient="auto">
      <polygon points="0 0, 10 3.5, 0 7" fill="#3c3c3c" />
    </marker>
  </defs>

  <!-- Persona -->
  <rect x="40" y="40" width="240" height="160" rx="10" ry="10" fill="#f2f4ff" stroke="#3949ab" stroke-width="1.5" />
  <text x="160" y="65" text-anchor="middle" font-size="16" font-weight="bold">Persona</text>
  <line x1="40" y1="80" x2="280" y2="80" stroke="#3949ab" stroke-width="1" />
  <text x="55" y="100">+ id : Long</text>
  <text x="55" y="118">+ nombre : String</text>
  <text x="55" y="136">+ email : String</text>
  <text x="55" y="154">+ telefono : String</text>
  <text x="55" y="172">+ dni : String</text>
  <text x="55" y="190">+ membresiaActiva : Boolean</text>

  <!-- Usuario -->
  <rect x="320" y="40" width="240" height="160" rx="10" ry="10" fill="#f2f4ff" stroke="#3949ab" stroke-width="1.5" />
  <text x="440" y="65" text-anchor="middle" font-size="16" font-weight="bold">Usuario</text>
  <line x1="320" y1="80" x2="560" y2="80" stroke="#3949ab" stroke-width="1" />
  <text x="335" y="100">+ id : Long</text>
  <text x="335" y="118">+ nombre : String</text>
  <text x="335" y="136">+ email : String</text>
  <text x="335" y="154">+ dni : String</text>
  <text x="335" y="172">+ activo : Boolean</text>
  <text x="335" y="190">+ contraseña : String</text>

  <!-- Role -->
  <rect x="600" y="40" width="200" height="140" rx="10" ry="10" fill="#f2f4ff" stroke="#3949ab" stroke-width="1.5" />
  <text x="700" y="65" text-anchor="middle" font-size="16" font-weight="bold">Role</text>
  <line x1="600" y1="80" x2="800" y2="80" stroke="#3949ab" stroke-width="1" />
  <text x="615" y="100">+ id : Integer</text>
  <text x="615" y="118">+ codigo : String</text>
  <text x="615" y="136">+ nombre : String</text>

  <!-- Clase -->
  <rect x="40" y="260" width="240" height="160" rx="10" ry="10" fill="#f8f9ff" stroke="#1e88e5" stroke-width="1.5" />
  <text x="160" y="285" text-anchor="middle" font-size="16" font-weight="bold">Clase</text>
  <line x1="40" y1="300" x2="280" y2="300" stroke="#1e88e5" stroke-width="1" />
  <text x="55" y="320">+ id : Long</text>
  <text x="55" y="338">+ nombre : String</text>
  <text x="55" y="356">+ capacidad : Integer</text>
  <text x="55" y="374">+ fecha : OffsetDateTime</text>
  <text x="55" y="392">+ estado : String</text>

  <!-- TipoClase -->
  <rect x="320" y="260" width="240" height="140" rx="10" ry="10" fill="#f8f9ff" stroke="#1e88e5" stroke-width="1.5" />
  <text x="440" y="285" text-anchor="middle" font-size="16" font-weight="bold">TipoClase</text>
  <line x1="320" y1="300" x2="560" y2="300" stroke="#1e88e5" stroke-width="1" />
  <text x="335" y="320">+ id : Long</text>
  <text x="335" y="338">+ nombre : String</text>
  <text x="335" y="356">+ activo : Boolean</text>

  <!-- Suscripcion -->
  <rect x="600" y="260" width="240" height="160" rx="10" ry="10" fill="#f8f9ff" stroke="#1e88e5" stroke-width="1.5" />
  <text x="720" y="285" text-anchor="middle" font-size="16" font-weight="bold">Suscripcion</text>
  <line x1="600" y1="300" x2="840" y2="300" stroke="#1e88e5" stroke-width="1" />
  <text x="615" y="320">+ id : Long</text>
  <text x="615" y="338">+ estado : String</text>
  <text x="615" y="356">+ fechaInicio : LocalDate</text>
  <text x="615" y="374">+ fechaFin : LocalDate</text>
  <text x="615" y="392">+ proximoPago : LocalDate</text>

  <!-- Plan -->
  <rect x="880" y="260" width="220" height="140" rx="10" ry="10" fill="#f8f9ff" stroke="#1e88e5" stroke-width="1.5" />
  <text x="990" y="285" text-anchor="middle" font-size="16" font-weight="bold">Plan</text>
  <line x1="880" y1="300" x2="1100" y2="300" stroke="#1e88e5" stroke-width="1" />
  <text x="895" y="320">+ id : Integer</text>
  <text x="895" y="338">+ nombre : String</text>
  <text x="895" y="356">+ precio : Double</text>
  <text x="895" y="374">+ frecuencia : String</text>

  <!-- ReservaClase -->
  <rect x="40" y="480" width="240" height="140" rx="10" ry="10" fill="#fdf7f2" stroke="#fb8c00" stroke-width="1.5" />
  <text x="160" y="505" text-anchor="middle" font-size="16" font-weight="bold">ReservaClase</text>
  <line x1="40" y1="520" x2="280" y2="520" stroke="#fb8c00" stroke-width="1" />
  <text x="55" y="540">+ id : Long</text>
  <text x="55" y="558">+ reservadoEn : OffsetDateTime</text>
  <text x="55" y="576">+ estado : String</text>

  <!-- Asistencia -->
  <rect x="320" y="480" width="240" height="140" rx="10" ry="10" fill="#fdf7f2" stroke="#fb8c00" stroke-width="1.5" />
  <text x="440" y="505" text-anchor="middle" font-size="16" font-weight="bold">Asistencia</text>
  <line x1="320" y1="520" x2="560" y2="520" stroke="#fb8c00" stroke-width="1" />
  <text x="335" y="540">+ id : Long</text>
  <text x="335" y="558">+ ingreso : LocalDateTime</text>
  <text x="335" y="576">+ salida : LocalDateTime</text>

  <!-- PlanDeportista -->
  <rect x="600" y="480" width="240" height="160" rx="10" ry="10" fill="#fdf7f2" stroke="#fb8c00" stroke-width="1.5" />
  <text x="720" y="505" text-anchor="middle" font-size="16" font-weight="bold">PlanDeportista</text>
  <line x1="600" y1="520" x2="840" y2="520" stroke="#fb8c00" stroke-width="1" />
  <text x="615" y="540">+ id : Long</text>
  <text x="615" y="558">+ fechaInicio : LocalDate</text>
  <text x="615" y="576">+ fechaFin : LocalDate</text>
  <text x="615" y="594">+ estado : String</text>

  <!-- Entrenamiento -->
  <rect x="880" y="480" width="220" height="140" rx="10" ry="10" fill="#fdf7f2" stroke="#fb8c00" stroke-width="1.5" />
  <text x="990" y="505" text-anchor="middle" font-size="16" font-weight="bold">Entrenamiento</text>
  <line x1="880" y1="520" x2="1100" y2="520" stroke="#fb8c00" stroke-width="1" />
  <text x="895" y="540">+ id : Long</text>
  <text x="895" y="558">+ nombre : String</text>
  <text x="895" y="576">+ descripcion : String</text>

  <!-- Ejercicio -->
  <rect x="1160" y="480" width="220" height="140" rx="10" ry="10" fill="#fdf7f2" stroke="#fb8c00" stroke-width="1.5" />
  <text x="1270" y="505" text-anchor="middle" font-size="16" font-weight="bold">Ejercicio</text>
  <line x1="1160" y1="520" x2="1380" y2="520" stroke="#fb8c00" stroke-width="1" />
  <text x="1175" y="540">+ id : Long</text>
  <text x="1175" y="558">+ nombre : String</text>
  <text x="1175" y="576">+ grupoMuscular : String</text>

  <!-- EntrenamientoEjercicio -->
  <rect x="1160" y="680" width="220" height="150" rx="10" ry="10" fill="#fff7f7" stroke="#e53935" stroke-width="1.5" />
  <text x="1270" y="705" text-anchor="middle" font-size="16" font-weight="bold">EntrenamientoEjercicio</text>
  <line x1="1160" y1="720" x2="1380" y2="720" stroke="#e53935" stroke-width="1" />
  <text x="1175" y="740">+ id : Long</text>
  <text x="1175" y="758">+ orden : Integer</text>
  <text x="1175" y="776">+ series : Integer</text>
  <text x="1175" y="794">+ repeticiones : String</text>
  <text x="1175" y="812">+ descansoSegundos : Integer</text>

  <!-- Evaluacion -->
  <rect x="40" y="700" width="240" height="160" rx="10" ry="10" fill="#fff7f7" stroke="#e53935" stroke-width="1.5" />
  <text x="160" y="725" text-anchor="middle" font-size="16" font-weight="bold">Evaluacion</text>
  <line x1="40" y1="740" x2="280" y2="740" stroke="#e53935" stroke-width="1" />
  <text x="55" y="760">+ id : Long</text>
  <text x="55" y="778">+ fecha : OffsetDateTime</text>
  <text x="#55" y="796">+ pesoKg : Double</text>
  <text x="55" y="814">+ estaturaCm : Double</text>

  <!-- Pago -->
  <rect x="320" y="700" width="240" height="160" rx="10" ry="10" fill="#fff7f7" stroke="#e53935" stroke-width="1.5" />
  <text x="440" y="725" text-anchor="middle" font-size="16" font-weight="bold">Pago</text>
  <line x1="320" y1="740" x2="560" y2="740" stroke="#e53935" stroke-width="1" />
  <text x="335" y="760">+ id : Long</text>
  <text x="335" y="778">+ codigoPago : String</text>
  <text x="335" y="796">+ fecha : LocalDate</text>
  <text x="335" y="814">+ monto : Double</text>
  <text x="335" y="832">+ estado : String</text>

  <!-- Locker -->
  <rect x="600" y="700" width="240" height="140" rx="10" ry="10" fill="#fff7f7" stroke="#e53935" stroke-width="1.5" />
  <text x="720" y="725" text-anchor="middle" font-size="16" font-weight="bold">Locker</text>
  <line x1="600" y1="740" x2="840" y2="740" stroke="#e53935" stroke-width="1" />
  <text x="615" y="760">+ id : Long</text>
  <text x="615" y="778">+ numero : String</text>
  <text x="615" y="796">+ estado : EstadoLocker</text>

  <!-- Visitante -->
  <rect x="880" y="700" width="240" height="180" rx="10" ry="10" fill="#fff7f7" stroke="#e53935" stroke-width="1.5" />
  <text x="1000" y="725" text-anchor="middle" font-size="16" font-weight="bold">Visitante</text>
  <line x1="880" y1="740" x2="1120" y2="740" stroke="#e53935" stroke-width="1" />
  <text x="895" y="760">+ id : Long</text>
  <text x="895" y="778">+ nombreCompleto : String</text>
  <text x="895" y="796">+ documentoIdentidad : String</text>
  <text x="895" y="814">+ telefono : String</text>
  <text x="895" y="832">+ fechaHoraIngreso : LocalDateTime</text>
  <text x="895" y="850">+ estado : String</text>

  <!-- Promocion -->
  <rect x="40" y="940" width="260" height="200" rx="10" ry="10" fill="#f4fff7" stroke="#43a047" stroke-width="1.5" />
  <text x="170" y="965" text-anchor="middle" font-size="16" font-weight="bold">Promocion</text>
  <line x1="40" y1="980" x2="300" y2="980" stroke="#43a047" stroke-width="1" />
  <text x="55" y="1000">+ id : Long</text>
  <text x="55" y="1018">+ nombre : String</text>
  <text x="55" y="1036">+ tipo : TipoDescuento</text>
  <text x="55" y="1054">+ valor : BigDecimal</text>
  <text x="55" y="1072">+ maxUsos : Integer</text>
  <text x="55" y="1090">+ usados : Integer</text>
  <text x="55" y="1108">+ fechaInicio : LocalDate</text>
  <text x="55" y="1126">+ fechaFin : LocalDate</text>
  <text x="55" y="1144">+ estado : Estado</text>

  <!-- PromocionMembresia -->
  <rect x="340" y="970" width="220" height="120" rx="10" ry="10" fill="#f4fff7" stroke="#43a047" stroke-width="1.5" />
  <text x="450" y="995" text-anchor="middle" font-size="16" font-weight="bold">PromocionMembresia</text>
  <line x1="340" y1="1010" x2="560" y2="1010" stroke="#43a047" stroke-width="1" />
  <text x="355" y="1030">+ id : Long</text>
  <text x="355" y="1048">+ membresia : String</text>

  <!-- ClaseCalificacion -->
  <rect x="600" y="950" width="260" height="180" rx="10" ry="10" fill="#f4fff7" stroke="#43a047" stroke-width="1.5" />
  <text x="730" y="975" text-anchor="middle" font-size="16" font-weight="bold">ClaseCalificacion</text>
  <line x1="600" y1="990" x2="860" y2="990" stroke="#43a047" stroke-width="1" />
  <text x="615" y="1010">+ id : Long</text>
  <text x="615" y="1028">+ reservaId : Long</text>
  <text x="615" y="1046">+ claseId : Long</text>
  <text x="615" y="1064">+ deportistaId : Long</text>
  <text x="615" y="1082">+ ratingGeneral : Short</text>
  <text x="615" y="1100">+ comentario : String</text>

  <!-- PasswordResetToken -->
  <rect x="880" y="950" width="240" height="160" rx="10" ry="10" fill="#f4fff7" stroke="#43a047" stroke-width="1.5" />
  <text x="1000" y="975" text-anchor="middle" font-size="16" font-weight="bold">PasswordResetToken</text>
  <line x1="880" y1="990" x2="1120" y2="990" stroke="#43a047" stroke-width="1" />
  <text x="895" y="1010">+ id : Long</text>
  <text x="895" y="1028">+ email : String</text>
  <text x="895" y="1046">+ token : String</text>
  <text x="895" y="1064">+ fechaExpiracion : LocalDateTime</text>
  <text x="895" y="1082">+ usado : Boolean</text>

  <!-- VerificationToken -->
  <rect x="1160" y="950" width="240" height="160" rx="10" ry="10" fill="#f4fff7" stroke="#43a047" stroke-width="1.5" />
  <text x="1280" y="975" text-anchor="middle" font-size="16" font-weight="bold">VerificationToken</text>
  <line x1="1160" y1="990" x2="1400" y2="990" stroke="#43a047" stroke-width="1" />
  <text x="1175" y="1010">+ id : Long</text>
  <text x="1175" y="1028">+ token : String</text>
  <text x="1175" y="1046">+ fechaCreacion : LocalDateTime</text>
  <text x="1175" y="1064">+ fechaExpiracion : LocalDateTime</text>
  <text x="1175" y="1082">+ usado : Boolean</text>

  <!-- EstadoLocker enumeration -->
  <rect x="600" y="870" width="220" height="60" rx="10" ry="10" fill="#fff" stroke="#9e9e9e" stroke-width="1.5" />
  <text x="710" y="895" text-anchor="middle" font-size="14" font-weight="bold">EstadoLocker</text>
  <line x1="600" y1="906" x2="820" y2="906" stroke="#9e9e9e" stroke-width="1" />
  <text x="615" y="922">DISPONIBLE, OCUPADO, MANTENIMIENTO</text>

  <!-- Relationships -->
  <!-- Usuario -> Role -->
  <line x1="560" y1="120" x2="600" y2="120" stroke="#3c3c3c" stroke-width="1.2" marker-end="url(#arrow)" />
  <text x="580" y="110" text-anchor="middle" font-style="italic">rol</text>

  <!-- Clase -> Usuario -->
  <line x1="160" y1="260" x2="440" y2="200" stroke="#3c3c3c" stroke-width="1.2" marker-end="url(#arrow)" />
  <text x="300" y="220" text-anchor="middle" font-style="italic">entrenador</text>

  <!-- Clase -> TipoClase -->
  <line x1="280" y1="340" x2="320" y2="340" stroke="#3c3c3c" stroke-width="1.2" marker-end="url(#arrow)" />
  <text x="300" y="330" text-anchor="middle" font-style="italic">tipoClase</text>

  <!-- Suscripcion -> Persona -->
  <line x1="720" y1="260" x2="160" y2="200" stroke="#3c3c3c" stroke-width="1.2" marker-end="url(#arrow)" />
  <text x="400" y="230" text-anchor="middle" font-style="italic">deportista</text>

  <!-- Suscripcion -> Plan -->
  <line x1="840" y1="340" x2="880" y2="340" stroke="#3c3c3c" stroke-width="1.2" marker-end="url(#arrow)" />
  <text x="860" y="330" text-anchor="middle" font-style="italic">plan</text>

  <!-- ReservaClase -> Persona -->
  <line x1="160" y1="480" x2="160" y2="200" stroke="#3c3c3c" stroke-width="1.2" marker-end="url(#arrow)" />
  <text x="140" y="340" text-anchor="middle" font-style="italic">deportista</text>

  <!-- ReservaClase -> Clase -->
  <line x1="160" y1="480" x2="160" y2="420" stroke="#3c3c3c" stroke-width="1.2" marker-end="url(#arrow)" />
  <text x="180" y="450" text-anchor="middle" font-style="italic">clase</text>

  <!-- Asistencia -> Persona -->
  <line x1="440" y1="480" x2="160" y2="200" stroke="#3c3c3c" stroke-width="1.2" marker-end="url(#arrow)" />
  <text x="320" y="350" text-anchor="middle" font-style="italic">persona</text>

  <!-- PlanDeportista -> Persona -->
  <line x1="720" y1="480" x2="160" y2="200" stroke="#3c3c3c" stroke-width="1.2" marker-end="url(#arrow)" />
  <text x="470" y="360" text-anchor="middle" font-style="italic">deportista</text>

  <!-- PlanDeportista -> Entrenamiento -->
  <line x1="840" y1="560" x2="880" y2="560" stroke="#3c3c3c" stroke-width="1.2" marker-end="url(#arrow)" />
  <text x="860" y="550" text-anchor="middle" font-style="italic">entrenamiento</text>

  <!-- Entrenamiento -> Persona -->
  <line x1="990" y1="480" x2="200" y2="200" stroke="#3c3c3c" stroke-width="1.2" marker-end="url(#arrow)" />
  <text x="600" y="360" text-anchor="middle" font-style="italic">creadoPor</text>

  <!-- EntrenamientoEjercicio -> Entrenamiento -->
  <line x1="1270" y1="680" x2="990" y2="620" stroke="#3c3c3c" stroke-width="1.2" marker-end="url(#arrow)" />
  <text x="1150" y="640" text-anchor="middle" font-style="italic">entrenamiento</text>

  <!-- EntrenamientoEjercicio -> Ejercicio -->
  <line x1="1270" y1="680" x2="1270" y2="620" stroke="#3c3c3c" stroke-width="1.2" marker-end="url(#arrow)" />
  <text x="1290" y="650" text-anchor="middle" font-style="italic">ejercicio</text>

  <!-- Evaluacion -> Persona (deportista) -->
  <line x1="160" y1="700" x2="160" y2="200" stroke="#3c3c3c" stroke-width="1.2" marker-end="url(#arrow)" />
  <text x="180" y="600" text-anchor="middle" font-style="italic">deportista</text>

  <!-- Evaluacion -> Persona (evaluador) -->
  <line x1="160" y1="700" x2="200" y2="200" stroke="#747474" stroke-width="1.2" stroke-dasharray="4 4" marker-end="url(#arrow)" />
  <text x="210" y="540" text-anchor="middle" font-style="italic">evaluador</text>

  <!-- Pago -> Persona (deportista) -->
  <line x1="440" y1="700" x2="160" y2="200" stroke="#3c3c3c" stroke-width="1.2" marker-end="url(#arrow)" />
  <text x="310" y="600" text-anchor="middle" font-style="italic">deportista</text>

  <!-- Pago -> Persona (registradoPor) -->
  <line x1="440" y1="700" x2="200" y2="200" stroke="#747474" stroke-width="1.2" stroke-dasharray="4 4" marker-end="url(#arrow)" />
  <text x="320" y="540" text-anchor="middle" font-style="italic">registradoPor</text>

  <!-- Locker -> Persona -->
  <line x1="720" y1="700" x2="200" y2="200" stroke="#3c3c3c" stroke-width="1.2" marker-end="url(#arrow)" />
  <text x="500" y="600" text-anchor="middle" font-style="italic">personaAsignada</text>

  <!-- Locker -> EstadoLocker enum -->
  <line x1="720" y1="840" x2="720" y2="870" stroke="#3c3c3c" stroke-width="1.2" marker-end="url(#arrow)" />

  <!-- Visitante -> Usuario -->
  <line x1="1000" y1="700" x2="440" y2="200" stroke="#3c3c3c" stroke-width="1.2" marker-end="url(#arrow)" />
  <text x="760" y="520" text-anchor="middle" font-style="italic">registradoPor</text>

  <!-- Visitante -> Persona -->
  <line x1="1000" y1="700" x2="200" y2="200" stroke="#3c3c3c" stroke-width="1.2" marker-end="url(#arrow)" />
  <text x="620" y="480" text-anchor="middle" font-style="italic">invitadoPorPersona</text>

  <!-- Promocion -> PromocionMembresia -->
  <line x1="300" y1="1040" x2="340" y2="1040" stroke="#3c3c3c" stroke-width="1.2" marker-end="url(#arrow)" />
  <text x="320" y="1030" text-anchor="middle" font-style="italic">membresias</text>

  <!-- ClaseCalificacion -> ReservaClase -->
  <line x1="730" y1="950" x2="160" y2="620" stroke="#3c3c3c" stroke-width="1.2" marker-end="url(#arrow)" />
  <text x="440" y="800" text-anchor="middle" font-style="italic">reservaId</text>

  <!-- ClaseCalificacion -> Clase -->
  <line x1="730" y1="950" x2="160" y2="420" stroke="#3c3c3c" stroke-width="1.2" marker-end="url(#arrow)" />
  <text x="420" y="760" text-anchor="middle" font-style="italic">claseId</text>

  <!-- ClaseCalificacion -> Persona -->
  <line x1="730" y1="950" x2="200" y2="200" stroke="#3c3c3c" stroke-width="1.2" marker-end="url(#arrow)" />
  <text x="480" y="720" text-anchor="middle" font-style="italic">deportistaId</text>

  <!-- PasswordResetToken -> Persona (via email) -->
  <line x1="880" y1="1030" x2="200" y2="200" stroke="#747474" stroke-width="1.2" stroke-dasharray="4 4" marker-end="url(#arrow)" />
  <text x="560" y="860" text-anchor="middle" font-style="italic">email</text>

  <!-- VerificationToken -> Persona -->
  <line x1="1280" y1="950" x2="200" y2="200" stroke="#3c3c3c" stroke-width="1.2" marker-end="url(#arrow)" />
  <text x="760" y="760" text-anchor="middle" font-style="italic">persona</text>
</svg>
